<?xml version="1.0" encoding="UTF-8" standalone="no"?>
<!DOCTYPE svg PUBLIC "-//W3C//DTD SVG 1.1//EN" "http://www.w3.org/Graphics/SVG/1.1/DTD/svg11.dtd">
<svg width="100%" height="100%" viewBox="0 0 3643 3643" version="1.1" xmlns="http://www.w3.org/2000/svg" xmlns:xlink="http://www.w3.org/1999/xlink" xml:space="preserve" xmlns:serif="http://www.serif.com/" style="fill-rule:evenodd;clip-rule:evenodd;stroke-miterlimit:2;">
    <g transform="matrix(1,0,0,1,-712.308,-686.559)">
        <g transform="matrix(4.16667,0,0,4.16667,0,0)">
            <path d="M1045.05,802.571C1044.53,760.961 1027.95,722.159 998.36,693.314C968.781,664.478 929.573,648.837 887.959,649.388L887.954,649.388C887.253,649.396 886.551,649.409 885.872,649.428C879.84,649.568 876.628,645.669 875.526,643.979C874.395,642.247 872.05,637.608 874.701,631.972C895.341,588.103 905.783,541.095 905.736,492.255C905.693,447.843 896.98,404.81 879.836,364.351C863.274,325.261 839.575,290.206 809.4,260.155C779.22,230.101 744.059,206.546 704.893,190.144C664.686,173.308 621.99,164.774 577.955,164.774C577.592,164.774 577.221,164.774 576.858,164.776C532.815,164.918 490.088,173.653 449.864,190.741C411.012,207.246 376.114,230.813 346.14,260.788C316.165,290.765 292.598,325.663 276.096,364.515C259.009,404.739 250.274,447.468 250.134,491.511C249.993,535.929 258.528,579.005 275.506,619.544C291.908,658.708 315.465,693.869 345.518,724.048C375.569,754.222 410.625,777.919 449.714,794.481C490.175,811.624 533.208,820.337 577.619,820.379L577.941,820.379C626.663,820.379 673.559,809.938 717.33,789.344C722.965,786.692 727.604,789.036 729.337,790.167C731.027,791.271 734.938,794.485 734.784,800.521C734.767,801.222 734.754,801.923 734.746,802.603C734.236,844.217 749.837,883.426 778.674,913.006C807.52,942.593 846.323,959.173 887.933,959.688C888.598,959.696 889.258,959.7 889.922,959.7C931.373,959.7 970.261,943.605 999.613,914.253C1029.43,884.431 1045.57,844.769 1045.05,802.571Z" style="fill:white;fill-rule:nonzero;"/>
        </g>
        <g transform="matrix(4.16667,0,0,4.16667,0,0)">
            <path d="M297.771,785.244C227.844,785.244 170.954,842.134 170.954,912.061C170.954,981.987 227.844,1038.88 297.771,1038.88C367.698,1038.88 424.588,981.987 424.588,912.061C424.588,842.134 367.698,785.244 297.771,785.244Z" style="fill:url(#_Linear1);fill-rule:nonzero;"/>
        </g>
        <g transform="matrix(4.16667,0,0,4.16667,0,0)">
            <g transform="matrix(4.29356,0,0,4.29356,339.154,267.178)">
                <path d="M46.354,108.579L63.56,108.579L63.56,106.302L55.45,106.302L55.45,97.359L63.56,97.359L63.56,95.083L46.354,95.083L46.354,97.359L53.42,97.359L53.42,106.302L46.354,106.302L46.354,108.579Z" style="fill:none;stroke:url(#_Linear2);stroke-width:2.33px;"/>
                <path d="M96.049,30.401C97.852,29.867 99.425,28.874 100.764,27.417C102.879,25.115 103.936,21.848 103.936,17.618C103.936,14.942 103.484,12.607 102.58,10.611C101.676,8.615 100.353,7.068 98.611,5.969C96.869,4.871 94.915,4.321 92.747,4.321C89.668,4.321 87.018,5.379 84.798,7.494C82.77,9.428 81.679,12.559 81.504,16.859C84.372,18.124 86.811,19.558 88.81,21.163C91.991,23.724 94.394,26.809 96.049,30.401Z" style="fill:none;stroke:url(#_Linear3);stroke-width:2.33px;"/>
                <path d="M27.355,17.197C27.31,14.696 26.873,12.49 26.016,10.6C25.112,8.604 23.789,7.057 22.048,5.958C20.306,4.86 18.351,4.31 16.184,4.31C13.105,4.31 10.455,5.368 8.235,7.483C6.015,9.598 4.905,13.13 4.905,18.078C4.905,22.039 5.97,25.16 8.1,27.439C9.554,28.995 11.266,30.006 13.224,30.5C14.732,27.171 17.22,24.099 20.701,21.283C22.611,19.741 24.835,18.382 27.355,17.197Z" style="fill:none;stroke:url(#_Linear4);stroke-width:2.33px;"/>
                <path d="M38.178,72.389C38.269,71.553 38.32,70.64 38.32,69.632C38.32,66.576 37.703,64.344 36.471,62.935C35.239,61.525 33.567,60.819 31.456,60.819C29.434,60.819 27.811,61.535 26.586,62.968C25.361,64.4 24.748,66.768 24.748,70.074C24.748,70.905 24.788,71.676 24.866,72.389" style="fill:none;stroke:url(#_Linear5);stroke-width:2.33px;"/>
                <path d="M31.479,53.226C26.209,53.226 22.099,54.702 19.147,57.654C16.195,60.606 14.719,64.732 14.719,70.03C14.719,70.851 14.77,71.628 14.84,72.389" style="fill:none;stroke:url(#_Linear6);stroke-width:2.33px;"/>
                <path d="M61.283,72.389L48.233,72.389C47.999,75.016 47.402,77.255 46.434,79.096C45.157,81.524 43.312,83.413 40.899,84.764C38.486,86.114 35.478,86.789 31.877,86.789C28.217,86.789 25.187,86.206 22.789,85.04C20.39,83.874 18.446,82.029 16.955,79.506C15.787,77.527 15.093,75.147 14.84,72.389" style="fill:none;stroke:url(#_Linear7);stroke-width:2.33px;"/>
                <path d="M38.178,72.389C37.942,74.565 37.402,76.168 36.549,77.181C35.368,78.583 33.7,79.284 31.545,79.284C29.449,79.284 27.792,78.568 26.574,77.137C25.666,76.068 25.097,74.484 24.866,72.389" style="fill:none;stroke:url(#_Linear8);stroke-width:2.33px;"/>
                <path d="M61.283,72.389C61.214,71.628 61.162,70.851 61.162,70.03C61.162,64.732 62.639,60.606 65.59,57.654C68.542,54.702 72.653,53.226 77.922,53.226" style="fill:none;stroke:url(#_Linear9);stroke-width:2.33px;"/>
                <path d="M84.622,72.389C84.385,74.565 83.845,76.168 82.992,77.181C81.812,78.583 80.144,79.284 77.989,79.284C75.893,79.284 74.236,78.568 73.018,77.137C72.11,76.068 71.541,74.484 71.31,72.389" style="fill:none;stroke:url(#_Linear10);stroke-width:2.33px;"/>
                <path d="M61.283,72.389C61.536,75.147 62.231,77.527 63.399,79.506C64.89,82.029 66.834,83.874 69.233,85.04C71.631,86.206 74.66,86.789 78.321,86.789C81.922,86.789 84.929,86.114 87.343,84.764C89.756,83.413 91.601,81.524 92.877,79.096C93.846,77.255 94.443,75.016 94.677,72.389L98.694,72.389L98.694,45.099C98.694,40.798 98.242,37.075 97.35,33.92C98.496,33.587 99.613,33.151 100.685,32.563C103.152,31.21 105.057,29.218 106.403,26.587C107.749,23.956 108.422,20.974 108.422,17.641C108.422,14.352 107.782,11.411 106.504,8.817C105.226,6.224 103.369,4.202 100.932,2.752C98.495,1.302 95.759,0.577 92.725,0.577C88.091,0.577 84.309,2.12 81.379,5.207C78.981,7.734 77.581,11.068 77.146,15.183C76.6,15 76.051,14.817 75.482,14.644C69.87,12.927 63.272,12.068 55.684,12.068C47.258,12.068 40.209,12.887 34.539,14.524C33.574,14.802 32.651,15.105 31.747,15.418C31.521,13.01 30.924,10.802 29.94,8.806C28.662,6.213 26.805,4.191 24.368,2.741C21.931,1.291 19.196,0.566 16.161,0.566C11.528,0.566 7.745,2.109 4.816,5.196C1.885,8.283 0.421,12.554 0.421,18.01C0.421,20.896 1.049,23.631 2.304,26.217C3.56,28.803 5.406,30.844 7.843,32.338C9.141,33.135 10.54,33.703 12.025,34.075C11.265,37.181 10.878,41.105 10.878,45.878L10.878,72.389L14.84,72.389" style="fill:none;stroke:url(#_Linear11);stroke-width:2.33px;"/>
                <path d="M84.622,72.389C84.713,71.553 84.763,70.64 84.763,69.632C84.763,66.576 84.147,64.344 82.914,62.935C81.682,61.525 80.011,60.819 77.9,60.819C75.878,60.819 74.254,61.535 73.03,62.968C71.804,64.4 71.192,66.768 71.192,70.074C71.192,70.905 71.232,71.676 71.31,72.389" style="fill:none;stroke:url(#_Linear12);stroke-width:2.33px;"/>
            </g>
        </g>
    </g>
    <defs>
        <linearGradient id="_Linear1" x1="0" y1="0" x2="1" y2="0" gradientUnits="userSpaceOnUse" gradientTransform="matrix(253.634,0,0,253.636,170.954,912.062)"><stop offset="0" style="stop-color:rgb(0,148,236);stop-opacity:1"/><stop offset="1" style="stop-color:rgb(0,174,167);stop-opacity:1"/></linearGradient>
        <linearGradient id="_Linear2" x1="0" y1="0" x2="1" y2="0" gradientUnits="userSpaceOnUse" gradientTransform="matrix(108.001,0,0,108.013,0.421,54.5725)"><stop offset="0" style="stop-color:rgb(0,148,236);stop-opacity:1"/><stop offset="1" style="stop-color:rgb(0,174,167);stop-opacity:1"/></linearGradient>
        <linearGradient id="_Linear3" x1="0" y1="0" x2="1" y2="0" gradientUnits="userSpaceOnUse" gradientTransform="matrix(108.001,0,0,108.013,0.421,54.5725)"><stop offset="0" style="stop-color:rgb(0,148,236);stop-opacity:1"/><stop offset="1" style="stop-color:rgb(0,174,167);stop-opacity:1"/></linearGradient>
        <linearGradient id="_Linear4" x1="0" y1="0" x2="1" y2="0" gradientUnits="userSpaceOnUse" gradientTransform="matrix(108.001,0,0,108.013,0.421,54.5725)"><stop offset="0" style="stop-color:rgb(0,148,236);stop-opacity:1"/><stop offset="1" style="stop-color:rgb(0,174,167);stop-opacity:1"/></linearGradient>
        <linearGradient id="_Linear5" x1="0" y1="0" x2="1" y2="0" gradientUnits="userSpaceOnUse" gradientTransform="matrix(108.001,0,0,108.013,0.421,54.5725)"><stop offset="0" style="stop-color:rgb(0,148,236);stop-opacity:1"/><stop offset="1" style="stop-color:rgb(0,174,167);stop-opacity:1"/></linearGradient>
        <linearGradient id="_Linear6" x1="0" y1="0" x2="1" y2="0" gradientUnits="userSpaceOnUse" gradientTransform="matrix(108.001,0,0,108.013,0.421,54.5725)"><stop offset="0" style="stop-color:rgb(0,148,236);stop-opacity:1"/><stop offset="1" style="stop-color:rgb(0,174,167);stop-opacity:1"/></linearGradient>
        <linearGradient id="_Linear7" x1="0" y1="0" x2="1" y2="0" gradientUnits="userSpaceOnUse" gradientTransform="matrix(108.001,0,0,108.013,0.421,54.5725)"><stop offset="0" style="stop-color:rgb(0,148,236);stop-opacity:1"/><stop offset="1" style="stop-color:rgb(0,174,167);stop-opacity:1"/></linearGradient>
        <linearGradient id="_Linear8" x1="0" y1="0" x2="1" y2="0" gradientUnits="userSpaceOnUse" gradientTransform="matrix(108.001,0,0,108.013,0.421,54.5725)"><stop offset="0" style="stop-color:rgb(0,148,236);stop-opacity:1"/><stop offset="1" style="stop-color:rgb(0,174,167);stop-opacity:1"/></linearGradient>
        <linearGradient id="_Linear9" x1="0" y1="0" x2="1" y2="0" gradientUnits="userSpaceOnUse" gradientTransform="matrix(108.001,0,0,108.013,0.421,54.5725)"><stop offset="0" style="stop-color:rgb(0,148,236);stop-opacity:1"/><stop offset="1" style="stop-color:rgb(0,174,167);stop-opacity:1"/></linearGradient>
        <linearGradient id="_Linear10" x1="0" y1="0" x2="1" y2="0" gradientUnits="userSpaceOnUse" gradientTransform="matrix(108.001,0,0,108.013,0.421,54.5725)"><stop offset="0" style="stop-color:rgb(0,148,236);stop-opacity:1"/><stop offset="1" style="stop-color:rgb(0,174,167);stop-opacity:1"/></linearGradient>
        <linearGradient id="_Linear11" x1="0" y1="0" x2="1" y2="0" gradientUnits="userSpaceOnUse" gradientTransform="matrix(108.001,0,0,108.013,0.421,54.5725)"><stop offset="0" style="stop-color:rgb(0,148,236);stop-opacity:1"/><stop offset="1" style="stop-color:rgb(0,174,167);stop-opacity:1"/></linearGradient>
        <linearGradient id="_Linear12" x1="0" y1="0" x2="1" y2="0" gradientUnits="userSpaceOnUse" gradientTransform="matrix(108.001,0,0,108.013,0.421,54.5725)"><stop offset="0" style="stop-color:rgb(0,148,236);stop-opacity:1"/><stop offset="1" style="stop-color:rgb(0,174,167);stop-opacity:1"/></linearGradient>
    </defs>
</svg>
