<?xml version="1.0" encoding="UTF-8" standalone="no"?>
<!DOCTYPE svg PUBLIC "-//W3C//DTD SVG 1.1//EN" "http://www.w3.org/Graphics/SVG/1.1/DTD/svg11.dtd">
<svg width="100%" height="100%" viewBox="0 0 1200 800" version="1.1" xmlns="http://www.w3.org/2000/svg" xmlns:xlink="http://www.w3.org/1999/xlink" xml:space="preserve" xmlns:serif="http://www.serif.com/" style="fill-rule:evenodd;clip-rule:evenodd;stroke-linejoin:round;stroke-miterlimit:2;">
    <g transform="matrix(1,0,0,1,400,-200)">
        <g transform="matrix(6.14055e-17,1.00283,-1.00283,6.14055e-17,802.462,197.738)">
            <rect x="0" y="0" width="800" height="1200" style="fill:url(#_Linear1);fill-rule:nonzero;"/>
        </g>
        <g transform="matrix(6.10504e-17,0.997029,-0.997029,6.10504e-17,795.504,197.738)">
            <path d="M1082.04,-153.149L1081.6,-153.583C1071.72,-163.468 1055.69,-163.467 1045.8,-153.581L1041.55,-149.331C1031.67,-139.445 1015.64,-139.444 1005.75,-149.33L1005.31,-149.763C995.427,-159.649 979.398,-159.648 969.512,-149.761L931.184,-111.433C921.178,-101.427 904.955,-101.427 894.949,-111.433C884.943,-121.439 884.943,-137.662 894.949,-147.667L951.596,-204.314C961.481,-214.2 961.481,-230.229 951.595,-240.114L951.16,-240.548C941.273,-250.434 925.245,-250.433 915.358,-240.547L790.697,-115.886C780.691,-105.88 764.469,-105.88 754.463,-115.886C744.457,-125.892 744.457,-142.114 754.463,-152.121L879.125,-276.783C889.011,-286.669 889.011,-302.697 879.125,-312.583L878.691,-313.018C868.805,-322.903 852.775,-322.903 842.89,-313.017L557.548,-27.674C547.542,-17.668 547.542,-1.446 557.548,8.56C567.554,18.566 567.554,34.789 557.548,44.795L433.103,169.24C423.097,179.246 423.097,195.469 433.103,205.475C443.108,215.48 459.331,215.48 469.337,205.475L593.782,81.03C603.788,71.024 620.012,71.024 630.018,81.03C640.023,91.036 640.023,107.258 630.018,117.264L573.589,173.693C563.582,183.699 563.582,199.921 573.589,209.927C583.595,219.933 599.817,219.933 609.823,209.927L647.937,171.813C657.942,161.808 674.166,161.808 684.172,171.813L684.172,171.814C694.178,181.82 710.4,181.82 720.406,171.814L724.226,167.994C734.231,157.988 750.454,157.988 760.461,167.994C770.467,178 786.689,178 796.695,167.994L1082.04,-117.348C1091.92,-127.234 1091.92,-143.263 1082.04,-153.149Z" style="fill:url(#_Linear2);"/>
        </g>
        <g transform="matrix(6.10504e-17,0.997029,-0.997029,6.10504e-17,795.504,197.738)">
            <path d="M609.173,-61.174C618.957,-51.39 618.957,-35.526 609.173,-25.742L534.49,48.941C524.706,58.725 524.706,74.588 534.49,84.373C544.274,94.157 544.274,110.02 534.49,119.804L518.822,135.471C509.038,145.255 509.038,161.118 518.822,170.903C528.606,180.687 544.47,180.687 554.254,170.903L806.096,-80.938C815.88,-90.722 815.88,-106.586 806.096,-116.37C796.312,-126.154 796.312,-142.018 806.096,-151.802L821.763,-167.469C831.547,-177.253 831.547,-193.117 821.763,-202.901C811.979,-212.685 811.979,-228.548 821.763,-238.333L896.446,-313.016C906.23,-322.8 906.23,-338.663 896.446,-348.447C886.662,-358.231 870.799,-358.231 861.015,-348.447L819.105,-306.538C809.321,-296.754 793.458,-296.754 783.674,-306.538C773.89,-316.322 758.026,-316.322 748.242,-306.539L693.6,-251.896C683.815,-242.112 667.953,-242.112 658.169,-251.896C648.385,-261.68 648.385,-277.543 658.169,-287.328L680.036,-309.196C689.82,-318.98 689.82,-334.843 680.036,-344.627C670.252,-354.412 670.252,-370.275 680.036,-380.059L724.603,-424.625C734.387,-434.409 734.387,-450.272 724.603,-460.057C714.818,-469.841 698.955,-469.841 689.171,-460.057L644.604,-415.491C634.82,-405.707 618.957,-405.706 609.173,-415.491C599.389,-425.275 583.525,-425.275 573.741,-415.491L321.9,-163.649C312.116,-153.865 312.116,-138.002 321.9,-128.218C331.685,-118.434 347.548,-118.434 357.332,-128.218L401.898,-172.784C411.683,-182.568 427.546,-182.568 437.33,-172.784C447.114,-163 447.114,-147.137 437.33,-137.353L392.764,-92.786C382.979,-83.002 382.979,-67.138 392.764,-57.354C402.548,-47.57 402.548,-31.707 392.764,-21.922L370.896,-0.054C361.111,9.73 361.111,25.593 370.896,35.377C380.68,45.162 396.543,45.162 406.327,35.377L460.97,-19.265C470.754,-29.049 486.617,-29.049 496.401,-19.265C506.186,-9.481 522.049,-9.481 531.832,-19.265L573.741,-61.174C583.525,-70.958 599.389,-70.958 609.173,-61.174Z" style="fill:url(#_Linear3);"/>
        </g>
        <g transform="matrix(6.10504e-17,0.997029,-0.997029,6.10504e-17,795.504,197.738)">
            <path d="M763.217,217.432C763.217,231.583 751.745,243.054 737.595,243.054C723.444,243.054 711.974,231.583 711.974,217.432C711.974,203.281 723.444,191.81 737.595,191.81C751.745,191.81 763.217,203.281 763.217,217.432Z" style="fill:url(#_Linear4);"/>
        </g>
        <g transform="matrix(6.10504e-17,0.997029,-0.997029,6.10504e-17,795.504,197.738)">
            <path d="M373.598,66.97C373.598,81.12 362.126,92.591 347.976,92.591C333.826,92.591 322.354,81.12 322.354,66.97C322.354,52.819 333.826,41.348 347.976,41.348C362.126,41.348 373.598,52.819 373.598,66.97Z" style="fill:url(#_Linear5);"/>
        </g>
        <g transform="matrix(6.10504e-17,0.997029,-0.997029,6.10504e-17,848.077,237.053)">
            <path d="M-165.175,947.138L-165.175,947.139C-155.391,956.922 -155.391,972.785 -165.175,982.569L-239.858,1057.25C-249.642,1067.04 -249.642,1082.9 -239.858,1092.68C-230.074,1102.47 -230.074,1118.33 -239.858,1128.12L-255.525,1143.78C-265.31,1153.57 -265.31,1169.43 -255.525,1179.21C-245.741,1189 -229.878,1189 -220.094,1179.21L31.747,927.374C41.531,917.59 41.531,901.727 31.747,891.942C21.963,882.158 21.963,866.295 31.747,856.511L47.415,840.844C57.199,831.06 57.199,815.196 47.415,805.412C37.63,795.628 37.63,779.765 47.415,769.98L122.098,695.297C131.882,685.513 131.882,669.649 122.098,659.865C112.314,650.081 96.45,650.081 86.666,659.865L44.757,701.774C34.973,711.559 19.11,711.559 9.326,701.774C-0.458,691.99 -16.321,691.99 -26.105,701.774L-80.748,756.416C-90.531,766.2 -106.395,766.2 -116.179,756.416C-125.963,746.632 -125.963,730.769 -116.179,720.985L-94.311,699.117C-84.527,689.333 -84.527,673.47 -94.311,663.686C-104.096,653.901 -104.096,638.038 -94.311,628.254L-49.745,583.688C-39.96,573.903 -39.96,558.04 -49.745,548.256C-59.529,538.472 -75.392,538.472 -85.176,548.256L-129.743,592.822C-139.527,602.606 -155.391,602.606 -165.175,592.822C-174.959,583.038 -190.822,583.038 -200.606,592.822L-452.448,844.663C-462.232,854.447 -462.232,870.311 -452.448,880.095L-452.447,880.095C-442.663,889.879 -426.8,889.879 -417.016,880.095L-372.45,835.528C-362.666,825.744 -346.802,825.744 -337.018,835.528C-327.234,845.313 -327.234,861.176 -337.018,870.96L-381.584,915.526C-391.369,925.311 -391.369,941.174 -381.584,950.958C-371.8,960.742 -371.8,976.605 -381.584,986.39L-403.452,1008.26C-413.236,1018.04 -413.236,1033.91 -403.452,1043.69C-393.668,1053.47 -377.805,1053.47 -368.021,1043.69L-313.378,989.047C-303.594,979.263 -287.731,979.263 -277.947,989.047C-268.163,998.831 -252.299,998.831 -242.515,989.047L-200.606,947.139C-190.822,937.354 -174.959,937.354 -165.175,947.138Z" style="fill:url(#_Linear6);"/>
        </g>
        <g transform="matrix(6.10504e-17,0.997029,-0.997029,6.10504e-17,848.077,237.053)">
            <path d="M16.376,1565.87L-1.877,1584.13C-11.883,1594.13 -11.883,1610.36 -1.877,1620.36C8.127,1630.37 24.35,1630.37 34.356,1620.36L104.305,1550.41C114.311,1540.41 130.534,1540.41 140.54,1550.41C150.545,1560.42 150.545,1576.64 140.54,1586.65L70.591,1656.6C60.585,1666.6 60.585,1682.83 70.591,1692.83C80.597,1702.84 96.82,1702.84 106.826,1692.83L145.725,1653.93C155.73,1643.93 171.953,1643.93 181.959,1653.93C191.965,1663.94 191.965,1680.16 181.959,1690.17L112.5,1759.63C102.494,1769.63 102.494,1785.86 112.5,1795.86C122.506,1805.87 138.729,1805.87 148.735,1795.86L433.86,1510.74C443.866,1500.73 443.866,1484.51 433.86,1474.5C423.854,1464.5 423.854,1448.27 433.86,1438.27L503.319,1368.81C513.325,1358.8 513.325,1342.58 503.319,1332.57C493.313,1322.57 477.091,1322.57 467.085,1332.57L428.187,1371.47C418.181,1381.48 401.958,1381.48 391.952,1371.47C381.946,1361.46 381.946,1345.24 391.952,1335.24L461.899,1265.29C471.906,1255.28 471.906,1239.06 461.899,1229.05C451.894,1219.05 435.671,1219.05 425.665,1229.05L355.717,1299C345.711,1309.01 329.488,1309.01 319.482,1299C309.476,1289 309.476,1272.77 319.482,1262.77L337.737,1244.51C347.743,1234.51 347.743,1218.28 337.737,1208.28L337.736,1208.28C327.73,1198.27 311.508,1198.27 301.502,1208.28L16.376,1493.4C6.37,1503.41 6.37,1519.63 16.376,1529.64C26.382,1539.64 26.382,1555.87 16.376,1565.87Z" style="fill:url(#_Linear7);"/>
        </g>
        <g transform="matrix(6.10504e-17,0.997029,-0.997029,6.10504e-17,848.077,237.053)">
            <path d="M30.132,1497.77L56.279,1471.62C66.285,1461.61 82.507,1461.61 92.513,1471.62C102.52,1481.63 118.743,1481.63 128.748,1471.62L414.091,1186.28C423.978,1176.39 423.978,1160.36 414.091,1150.48L413.657,1150.04C403.771,1140.16 387.743,1140.16 377.856,1150.04L351.492,1176.41C341.486,1186.41 325.264,1186.41 315.258,1176.41C305.252,1166.4 305.252,1150.18 315.258,1140.17L322.834,1132.6C332.72,1122.71 332.72,1106.68 322.834,1096.8L322.4,1096.36C312.514,1086.48 312.514,1070.45 322.4,1060.56C332.286,1050.67 332.286,1034.65 322.4,1024.76L321.966,1024.33C312.08,1014.44 296.051,1014.44 286.166,1024.33L257.574,1052.92C247.688,1062.8 231.659,1062.8 221.773,1052.92L221.339,1052.48C211.453,1042.6 195.424,1042.6 185.538,1052.48L-99.804,1337.83C-109.81,1347.83 -109.81,1364.06 -99.804,1374.06C-89.798,1384.07 -73.575,1384.07 -63.569,1374.06L-34.978,1345.47C-25.211,1335.7 -9.377,1335.7 0.389,1345.47L1.256,1346.34C11.022,1356.1 11.022,1371.94 1.256,1381.7C-8.749,1391.71 -8.749,1407.93 1.256,1417.94C11.262,1427.95 11.262,1444.17 1.256,1454.17L-6.102,1461.53C-16.108,1471.54 -16.108,1487.76 -6.102,1497.77C3.903,1507.77 20.126,1507.77 30.132,1497.77Z" style="fill:url(#_Linear8);"/>
        </g>
        <g transform="matrix(6.10504e-17,0.997029,-0.997029,6.10504e-17,848.077,237.053)">
            <path d="M-277.163,1273.81L-416.985,1413.63C-426.991,1423.64 -426.991,1439.86 -416.985,1449.87C-406.979,1459.88 -390.756,1459.88 -380.75,1449.87L-325.042,1394.16C-315.035,1384.16 -298.813,1384.16 -288.807,1394.16C-278.801,1404.17 -278.801,1420.39 -288.807,1430.4L-367.165,1508.75C-377.171,1518.76 -377.171,1534.98 -367.165,1544.99C-357.159,1554.99 -340.936,1554.99 -330.93,1544.99L-314.709,1528.77C-304.704,1518.76 -288.48,1518.76 -278.475,1528.77C-268.469,1538.77 -252.246,1538.77 -242.24,1528.77L-207.758,1494.29C-197.752,1484.28 -181.53,1484.28 -171.524,1494.29L-170.647,1495.16C-161.125,1504.68 -161.125,1520.12 -170.647,1529.64C-180.653,1539.65 -180.653,1555.87 -170.647,1565.88C-160.641,1575.88 -144.418,1575.88 -134.413,1565.88L227.204,1204.26C236.968,1194.5 236.968,1178.67 227.204,1168.9L226.328,1168.03C216.563,1158.26 216.563,1142.43 226.328,1132.67C236.091,1122.91 236.091,1107.08 226.328,1097.31L225.451,1096.43C215.687,1086.67 199.857,1086.67 190.093,1096.43L154.735,1131.79C144.971,1141.56 129.141,1141.56 119.376,1131.79L118.5,1130.92C108.736,1121.15 92.905,1121.15 83.142,1130.92L66.482,1147.58C56.476,1157.58 40.253,1157.58 30.248,1147.58C20.242,1137.57 20.242,1121.35 30.248,1111.34L109.045,1032.54C118.809,1022.78 118.809,1006.95 109.045,997.187L108.168,996.31C98.404,986.546 82.573,986.546 72.81,996.31L16.663,1052.46C6.657,1062.46 -9.565,1062.46 -19.571,1052.46C-29.577,1042.45 -29.577,1026.23 -19.571,1016.22L120.688,875.961C130.453,866.197 130.453,850.367 120.688,840.604L119.812,839.727C110.048,829.963 94.217,829.963 84.454,839.727L-277.163,1201.34C-287.168,1211.35 -287.168,1227.57 -277.163,1237.58C-267.157,1247.58 -267.157,1263.81 -277.163,1273.81Z" style="fill:url(#_Linear9);"/>
        </g>
        <g transform="matrix(6.10504e-17,0.997029,-0.997029,6.10504e-17,848.077,237.053)">
            <path d="M158.398,971.766C158.398,985.917 146.927,997.388 132.776,997.388C118.626,997.388 107.155,985.917 107.155,971.766C107.155,957.615 118.626,946.145 132.776,946.145C146.927,946.145 158.398,957.615 158.398,971.766Z" style="fill:url(#_Linear10);"/>
        </g>
        <g transform="matrix(6.10504e-17,0.997029,-0.997029,6.10504e-17,848.077,237.053)">
            <path d="M58.984,664.022C58.984,678.173 47.513,689.645 33.363,689.645C19.212,689.645 7.741,678.173 7.741,664.022C7.741,649.872 19.212,638.401 33.363,638.401C47.513,638.401 58.984,649.872 58.984,664.022Z" style="fill:url(#_Linear11);"/>
        </g>
        <g transform="matrix(6.10504e-17,0.997029,-0.997029,6.10504e-17,848.077,237.053)">
            <path d="M356.737,1658.4L356.304,1657.97C346.418,1648.08 346.419,1632.05 356.305,1622.17L360.555,1617.92C370.441,1608.03 370.442,1592 360.557,1582.12L360.123,1581.68C350.238,1571.79 350.239,1555.76 360.125,1545.88L398.454,1507.55C408.46,1497.54 408.46,1481.32 398.454,1471.32C388.448,1461.31 372.225,1461.31 362.219,1471.32L305.572,1527.96C295.686,1537.85 279.658,1537.85 269.772,1527.96L269.338,1527.53C259.453,1517.64 259.453,1501.61 269.339,1491.72L394.001,1367.06C404.007,1357.06 404.007,1340.83 394.001,1330.83C383.995,1320.82 367.772,1320.82 357.766,1330.83L233.104,1455.49C223.218,1465.38 207.189,1465.38 197.303,1455.49L196.869,1455.06C186.983,1445.17 186.984,1429.14 196.87,1419.26L482.212,1133.91C492.218,1123.91 508.44,1123.91 518.445,1133.91C528.452,1143.92 544.675,1143.92 554.681,1133.91L679.126,1009.47C689.132,999.463 705.355,999.463 715.361,1009.47C725.367,1019.47 725.367,1035.7 715.361,1045.7L590.916,1170.15C580.91,1180.15 580.91,1196.38 590.916,1206.38C600.922,1216.39 617.145,1216.39 627.15,1206.38L683.579,1149.96C693.585,1139.95 709.808,1139.95 719.813,1149.96C729.819,1159.96 729.819,1176.18 719.813,1186.19L681.7,1224.3C671.694,1234.31 671.694,1250.53 681.7,1260.54C691.706,1270.54 691.706,1286.77 681.7,1296.77L677.881,1300.59C667.875,1310.6 667.875,1326.82 677.881,1336.83C687.887,1346.83 687.887,1363.06 677.881,1373.06L392.538,1658.4C382.652,1668.29 366.624,1668.29 356.737,1658.4Z" style="fill:url(#_Linear12);"/>
        </g>
        <g transform="matrix(6.10504e-17,0.997029,-0.997029,6.10504e-17,848.077,237.053)">
            <path d="M565.271,1102.21C565.271,1116.36 553.799,1127.83 539.648,1127.83C525.498,1127.83 514.026,1116.36 514.026,1102.21C514.026,1088.05 525.498,1076.58 539.648,1076.58C553.799,1076.58 565.271,1088.05 565.271,1102.21Z" style="fill:url(#_Linear13);"/>
        </g>
    </g>
    <defs>
        <linearGradient id="_Linear1" x1="0" y1="0" x2="1" y2="0" gradientUnits="userSpaceOnUse" gradientTransform="matrix(1000,-1000,1000,1000,-100,1100)"><stop offset="0" style="stop-color:rgb(220,234,252);stop-opacity:1"/><stop offset="1" style="stop-color:rgb(166,236,254);stop-opacity:1"/></linearGradient>
        <linearGradient id="_Linear2" x1="0" y1="0" x2="1" y2="0" gradientUnits="userSpaceOnUse" gradientTransform="matrix(663.854,0,0,663.854,425.598,-51.4997)"><stop offset="0" style="stop-color:rgb(0,194,200);stop-opacity:1"/><stop offset="1" style="stop-color:rgb(26,74,255);stop-opacity:1"/></linearGradient>
        <linearGradient id="_Linear3" x1="0" y1="0" x2="1" y2="0" gradientUnits="userSpaceOnUse" gradientTransform="matrix(589.222,0,0,589.222,314.562,-144.577)"><stop offset="0" style="stop-color:rgb(0,162,201);stop-opacity:1"/><stop offset="1" style="stop-color:rgb(26,74,255);stop-opacity:1"/></linearGradient>
        <linearGradient id="_Linear4" x1="0" y1="0" x2="1" y2="0" gradientUnits="userSpaceOnUse" gradientTransform="matrix(51.2436,0,0,51.2436,711.973,217.432)"><stop offset="0" style="stop-color:rgb(0,246,249);stop-opacity:1"/><stop offset="1" style="stop-color:rgb(26,74,255);stop-opacity:1"/></linearGradient>
        <linearGradient id="_Linear5" x1="0" y1="0" x2="1" y2="0" gradientUnits="userSpaceOnUse" gradientTransform="matrix(51.2437,0,0,51.2437,322.354,66.9691)"><stop offset="0" style="stop-color:rgb(0,162,201);stop-opacity:1"/><stop offset="1" style="stop-color:rgb(26,74,255);stop-opacity:1"/></linearGradient>
        <linearGradient id="_Linear6" x1="0" y1="0" x2="1" y2="0" gradientUnits="userSpaceOnUse" gradientTransform="matrix(589.222,0,0,589.222,-393.378,863.735)"><stop offset="0" style="stop-color:rgb(119,165,254);stop-opacity:1"/><stop offset="1" style="stop-color:rgb(0,196,199);stop-opacity:1"/></linearGradient>
        <linearGradient id="_Linear7" x1="0" y1="0" x2="1" y2="0" gradientUnits="userSpaceOnUse" gradientTransform="matrix(520.206,0,0,520.206,-9.38253,1502.07)"><stop offset="0" style="stop-color:rgb(0,162,201);stop-opacity:1"/><stop offset="1" style="stop-color:rgb(83,229,252);stop-opacity:1"/></linearGradient>
        <linearGradient id="_Linear8" x1="0" y1="0" x2="1" y2="0" gradientUnits="userSpaceOnUse" gradientTransform="matrix(528.814,0,0,528.814,-107.309,1261.09)"><stop offset="0" style="stop-color:rgb(26,74,255);stop-opacity:1"/><stop offset="1" style="stop-color:rgb(0,246,249);stop-opacity:1"/></linearGradient>
        <linearGradient id="_Linear9" x1="0" y1="0" x2="1" y2="0" gradientUnits="userSpaceOnUse" gradientTransform="matrix(659.016,0,0,659.016,-424.489,1202.89)"><stop offset="0" style="stop-color:rgb(26,74,255);stop-opacity:1"/><stop offset="1" style="stop-color:rgb(0,162,201);stop-opacity:1"/></linearGradient>
        <linearGradient id="_Linear10" x1="0" y1="0" x2="1" y2="0" gradientUnits="userSpaceOnUse" gradientTransform="matrix(51.2436,0,0,51.2436,107.155,971.766)"><stop offset="0" style="stop-color:rgb(0,246,249);stop-opacity:1"/><stop offset="1" style="stop-color:rgb(26,74,255);stop-opacity:1"/></linearGradient>
        <linearGradient id="_Linear11" x1="0" y1="0" x2="1" y2="0" gradientUnits="userSpaceOnUse" gradientTransform="matrix(51.2437,0,0,51.2437,7.74129,664.023)"><stop offset="0" style="stop-color:rgb(0,162,201);stop-opacity:1"/><stop offset="1" style="stop-color:rgb(26,74,255);stop-opacity:1"/></linearGradient>
        <linearGradient id="_Linear12" x1="0" y1="0" x2="1" y2="0" gradientUnits="userSpaceOnUse" gradientTransform="matrix(0,-663.854,-663.854,0,458.387,1001.96)"><stop offset="0" style="stop-color:rgb(0,162,201);stop-opacity:1"/><stop offset="1" style="stop-color:rgb(26,74,255);stop-opacity:1"/></linearGradient>
        <linearGradient id="_Linear13" x1="0" y1="0" x2="1" y2="0" gradientUnits="userSpaceOnUse" gradientTransform="matrix(51.2437,0,0,51.2437,514.027,1102.21)"><stop offset="0" style="stop-color:rgb(0,246,249);stop-opacity:1"/><stop offset="1" style="stop-color:rgb(26,74,255);stop-opacity:1"/></linearGradient>
    </defs>
</svg>
