<?xml version="1.0" encoding="UTF-8" standalone="no"?>
<!DOCTYPE svg PUBLIC "-//W3C//DTD SVG 1.1//EN" "http://www.w3.org/Graphics/SVG/1.1/DTD/svg11.dtd">
<svg width="100%" height="100%" viewBox="0 0 463 463" version="1.1" xmlns="http://www.w3.org/2000/svg" xmlns:xlink="http://www.w3.org/1999/xlink" xml:space="preserve" xmlns:serif="http://www.serif.com/" style="fill-rule:evenodd;clip-rule:evenodd;stroke-miterlimit:2;">
    <g transform="matrix(1,0,0,1,3.9243,3.32032)">
        <g transform="matrix(4.16667,0,0,4.16667,0,0)">
            <g transform="matrix(1.00925,0,0,1.00925,-0.424894,-0.426282)">
                <path d="M46.354,108.579L63.56,108.579L63.56,106.302L55.45,106.302L55.45,97.359L63.56,97.359L63.56,95.083L46.354,95.083L46.354,97.359L53.42,97.359L53.42,106.302L46.354,106.302L46.354,108.579Z" style="fill:none;stroke:rgb(0,174,168);stroke-width:0.83px;"/>
                <path d="M96.049,30.401C97.852,29.867 99.425,28.874 100.764,27.417C102.879,25.115 103.936,21.848 103.936,17.618C103.936,14.942 103.484,12.607 102.58,10.611C101.676,8.615 100.353,7.068 98.611,5.969C96.869,4.871 94.915,4.321 92.747,4.321C89.668,4.321 87.018,5.379 84.798,7.494C82.77,9.428 81.679,12.559 81.504,16.859C84.372,18.124 86.811,19.558 88.81,21.163C91.991,23.724 94.394,26.809 96.049,30.401Z" style="fill:none;stroke:rgb(0,174,168);stroke-width:0.83px;"/>
                <path d="M27.355,17.197C27.31,14.696 26.873,12.49 26.016,10.6C25.112,8.604 23.789,7.057 22.048,5.958C20.306,4.86 18.351,4.31 16.184,4.31C13.105,4.31 10.455,5.368 8.235,7.483C6.015,9.598 4.905,13.13 4.905,18.078C4.905,22.039 5.97,25.16 8.1,27.439C9.554,28.995 11.266,30.006 13.224,30.5C14.732,27.171 17.22,24.099 20.701,21.283C22.611,19.741 24.835,18.382 27.355,17.197Z" style="fill:none;stroke:rgb(0,174,168);stroke-width:0.83px;"/>
                <path d="M38.178,72.389C38.269,71.553 38.32,70.64 38.32,69.632C38.32,66.576 37.703,64.344 36.471,62.935C35.239,61.525 33.567,60.819 31.456,60.819C29.434,60.819 27.811,61.535 26.586,62.968C25.361,64.4 24.748,66.768 24.748,70.074C24.748,70.905 24.788,71.676 24.866,72.389" style="fill:none;stroke:rgb(0,174,168);stroke-width:0.83px;"/>
                <path d="M31.479,53.226C26.209,53.226 22.099,54.702 19.147,57.654C16.195,60.606 14.719,64.732 14.719,70.03C14.719,70.851 14.77,71.628 14.84,72.389" style="fill:none;stroke:rgb(0,174,168);stroke-width:0.83px;"/>
                <path d="M61.283,72.389L48.233,72.389C47.999,75.016 47.402,77.255 46.434,79.096C45.157,81.524 43.312,83.413 40.899,84.764C38.486,86.114 35.478,86.789 31.877,86.789C28.217,86.789 25.187,86.206 22.789,85.04C20.39,83.874 18.446,82.029 16.955,79.506C15.787,77.527 15.093,75.147 14.84,72.389" style="fill:none;stroke:rgb(0,174,168);stroke-width:0.83px;"/>
                <path d="M38.178,72.389C37.942,74.565 37.402,76.168 36.549,77.181C35.368,78.583 33.7,79.284 31.545,79.284C29.449,79.284 27.792,78.568 26.574,77.137C25.666,76.068 25.097,74.484 24.866,72.389" style="fill:none;stroke:rgb(0,174,168);stroke-width:0.83px;"/>
                <path d="M61.283,72.389C61.214,71.628 61.162,70.851 61.162,70.03C61.162,64.732 62.639,60.606 65.59,57.654C68.542,54.702 72.653,53.226 77.922,53.226" style="fill:none;stroke:rgb(0,174,168);stroke-width:0.83px;"/>
                <path d="M84.622,72.389C84.385,74.565 83.845,76.168 82.992,77.181C81.812,78.583 80.144,79.284 77.989,79.284C75.893,79.284 74.236,78.568 73.018,77.137C72.11,76.068 71.541,74.484 71.31,72.389" style="fill:none;stroke:rgb(0,174,168);stroke-width:0.83px;"/>
                <path d="M61.283,72.389C61.536,75.147 62.231,77.527 63.399,79.506C64.89,82.029 66.834,83.874 69.233,85.04C71.631,86.206 74.66,86.789 78.321,86.789C81.922,86.789 84.929,86.114 87.343,84.764C89.756,83.413 91.601,81.524 92.877,79.096C93.846,77.255 94.443,75.016 94.677,72.389L98.694,72.389L98.694,45.099C98.694,40.798 98.242,37.075 97.35,33.92C98.496,33.587 99.613,33.151 100.685,32.563C103.152,31.21 105.057,29.218 106.403,26.587C107.749,23.956 108.422,20.974 108.422,17.641C108.422,14.352 107.782,11.411 106.504,8.817C105.226,6.224 103.369,4.202 100.932,2.752C98.495,1.302 95.759,0.577 92.725,0.577C88.091,0.577 84.309,2.12 81.379,5.207C78.981,7.734 77.581,11.068 77.146,15.183C76.6,15 76.051,14.817 75.482,14.644C69.87,12.927 63.272,12.068 55.684,12.068C47.258,12.068 40.209,12.887 34.539,14.524C33.574,14.802 32.651,15.105 31.747,15.418C31.521,13.01 30.924,10.802 29.94,8.806C28.662,6.213 26.805,4.191 24.368,2.741C21.931,1.291 19.196,0.566 16.161,0.566C11.528,0.566 7.745,2.109 4.816,5.196C1.885,8.283 0.421,12.554 0.421,18.01C0.421,20.896 1.049,23.631 2.304,26.217C3.56,28.803 5.406,30.844 7.843,32.338C9.141,33.135 10.54,33.703 12.025,34.075C11.265,37.181 10.878,41.105 10.878,45.878L10.878,72.389L14.84,72.389" style="fill:none;stroke:rgb(0,174,168);stroke-width:0.83px;"/>
                <path d="M84.622,72.389C84.713,71.553 84.763,70.64 84.763,69.632C84.763,66.576 84.147,64.344 82.914,62.935C81.682,61.525 80.011,60.819 77.9,60.819C75.878,60.819 74.254,61.535 73.03,62.968C71.804,64.4 71.192,66.768 71.192,70.074C71.192,70.905 71.232,71.676 71.31,72.389" style="fill:none;stroke:rgb(0,174,168);stroke-width:0.83px;"/>
            </g>
        </g>
    </g>
</svg>
